<svg id="Layer_1" data-name="Layer 1" xmlns="http://www.w3.org/2000/svg" viewBox="0 0 388.53 134.49"><defs><style>.cls-1{fill:#d16414;}.cls-2{isolation:isolate;}.cls-3{fill:#fff;}</style></defs><title>jj</title><g id="ESTY_btn" data-name="ESTY btn"><g id="Group_4" data-name="Group 4"><path id="Rectangle_14" data-name="Rectangle 14" class="cls-1" d="M67.24,0h254a67.25,67.25,0,0,1,67.25,67.24h0a67.25,67.25,0,0,1-67.25,67.25h-254A67.25,67.25,0,0,1,0,67.24H0A67.25,67.25,0,0,1,67.24,0Z"/><g id="Etsy" class="cls-2"><g class="cls-2"><path class="cls-3" d="M153.35,27.93c-.25,2.23-.43,4.4-.52,6.5s-.14,3.7-.14,4.78,0,2.25.09,3.3.13,1.93.19,2.63h-2.2a45.82,45.82,0,0,0-1.62-8.94,7.77,7.77,0,0,0-3.59-4.69Q143,30.13,138,30.13H130a17.55,17.55,0,0,0-4.93.52,3.34,3.34,0,0,0-2.24,2.2,17.13,17.13,0,0,0-.58,5.22V85.5a17.15,17.15,0,0,0,.58,5.17,3.31,3.31,0,0,0,2.24,2.24,17.48,17.48,0,0,0,4.93.53h7q6,0,9.13-1.63a9.46,9.46,0,0,0,4.5-5.3,42.27,42.27,0,0,0,2.06-10h2.19a66,66,0,0,0-.28,6.89c0,1.21.05,2.95.14,5.21s.27,4.61.53,7q-4.87-.19-11-.24c-4.08,0-7.72-.05-10.9-.05h-7.61c-3.15,0-6.52,0-10.09.05s-6.91.11-10,.24V93.73a19.91,19.91,0,0,0,4.93-.77,3.44,3.44,0,0,0,2.24-2.29,17.15,17.15,0,0,0,.58-5.17V38.07a17.13,17.13,0,0,0-.58-5.22,3.57,3.57,0,0,0-2.24-2.29,16,16,0,0,0-4.93-.72V27.93l10,.19c3.57.06,6.94.1,10.09.1h7.61q4.4,0,10,0T153.35,27.93ZM136.9,60.64v1.91H119.4V60.64ZM139.68,48q-.39,5.46-.34,8.32c0,1.91,0,3.67,0,5.26s0,3.35.1,5.26.22,4.69.48,8.32h-2.2q-.39-3.06-.91-6a9.14,9.14,0,0,0-2.3-4.79q-1.77-1.86-6-1.86V60.64c2.81,0,4.77-.74,5.89-2.2a11.46,11.46,0,0,0,2.15-5.17c.32-2,.6-3.73.86-5.26Z"/><path class="cls-3" d="M178,30.51v16h14.15v1.91H178v37c0,3,.54,5.1,1.62,6.31a5.75,5.75,0,0,0,4.5,1.81,6.44,6.44,0,0,0,5-2.34c1.4-1.56,2.62-4.19,3.64-7.89l1.91.48a21.79,21.79,0,0,1-3.78,9.37Q188.07,97,182.24,97a15.08,15.08,0,0,1-5.36-.81,11.51,11.51,0,0,1-3.73-2.35,11.87,11.87,0,0,1-2.92-5.26,32.87,32.87,0,0,1-.81-8.13v-32h-9.18V46.48h9.18V31.85c1.59-.06,3.12-.19,4.59-.38A18.21,18.21,0,0,0,178,30.51Z"/><path class="cls-3" d="M213.6,45.05a15.4,15.4,0,0,1,6.51,1.24,18.35,18.35,0,0,1,3.92,2.3q3.15,2.58,3.82-3.45h2.2q-.2,2.69-.28,6.36t-.1,9.9h-2.2a31.08,31.08,0,0,0-2-6.89A13.53,13.53,0,0,0,221.45,49a10.8,10.8,0,0,0-7-2.16,8.49,8.49,0,0,0-5.6,1.87,6.73,6.73,0,0,0-2.25,5.5,7.45,7.45,0,0,0,1.72,4.92,19.27,19.27,0,0,0,4.5,3.83q2.78,1.77,6,3.87A64.17,64.17,0,0,1,228.14,74,12.62,12.62,0,0,1,232,83.59a11.65,11.65,0,0,1-2.3,7.36,14.32,14.32,0,0,1-6,4.5A20.84,20.84,0,0,1,215.61,97a21.9,21.9,0,0,1-4-.34,19.33,19.33,0,0,1-3.58-1,17.76,17.76,0,0,1-2-1.15c-.67-.44-1.33-.92-2-1.43a1.14,1.14,0,0,0-1.73,0,6.39,6.39,0,0,0-1.14,3.21h-2.2c.12-2,.22-4.53.28-7.46s.1-6.82.1-11.67h2.2a54.14,54.14,0,0,0,1.91,9.37,13,13,0,0,0,3.92,6.27c1.79,1.5,4.27,2.24,7.46,2.24a9.71,9.71,0,0,0,5.69-2q2.82-2,2.82-7.08a8.76,8.76,0,0,0-3.06-6.89,64.15,64.15,0,0,0-7.74-5.64q-3.45-2.19-6.46-4.4a20,20,0,0,1-4.88-5,11.75,11.75,0,0,1-1.86-6.7,11.74,11.74,0,0,1,2-7,11.52,11.52,0,0,1,5.21-4A18.78,18.78,0,0,1,213.6,45.05Z"/><path class="cls-3" d="M283.71,46.39V48.3a5.74,5.74,0,0,0-3.35,1.62A13.43,13.43,0,0,0,277.49,55L261.8,96.12h-1.62l-17.6-42.37Q240.77,50,239,49.21a7.45,7.45,0,0,0-2.91-.82v-2c1.4.19,2.87.33,4.4.43s3.18.14,5,.14q3,0,6.26-.19l6.17-.38v2a24.47,24.47,0,0,0-4.25.34,2.71,2.71,0,0,0-2.35,2c-.32,1.11.07,3,1.15,5.69L264.2,85.6l-.58.19,10.9-28.5q1.82-4.78.39-6.7c-1-1.27-3.13-2-6.51-2.29V46.39c1.66.06,3.05.12,4.16.19s2.41.09,3.88.09,2.79,0,4-.09ZM261.8,96.12l-3.25,8.32a17,17,0,0,1-4.11,6.69,8,8,0,0,1-3.63,2,16,16,0,0,1-3.83.53,8,8,0,0,1-3.3-.67,5.28,5.28,0,0,1-3.2-5.07,5,5,0,0,1,1.34-3.68,4.91,4.91,0,0,1,3.73-1.39A5.33,5.33,0,0,1,249,104a4,4,0,0,1,1.43,3.35,4.42,4.42,0,0,1-.76,2.67,5.41,5.41,0,0,1-1.82,1.63.85.85,0,0,0,.34.1h.24a6.75,6.75,0,0,0,4.59-1.77,14.68,14.68,0,0,0,3.53-5.69l3.45-8.9Z"/></g></g></g></g></svg>